PathFileType	4	(X/Y/Z)	 s07c0301.trc
DataRate	CameraRate	NumFrames	NumMarkers	Units	OrigDataRate	OrigDataStartFrame	OrigNumFrames
200	200	4	48	mm	200	1001	2000
Frame#	Time	racr			lacr			c7			jug			rlel			rdr			llel			ldr			s2			lic			ric			lasi			rasi			rpsi			lpsi			rgt			lgt			rth1			rth2			rth3			rth4			rlfc			rmfc			rsh1			rsh2			rsh3			rsh4			rlmal			rcal			rtoe			rmt5			lth1			lth2			lth4			lth3			llfc			lmfc			lsh1			lsh2			lsh3			lsh4			llmal			lcal			ltoe			lmt5			SBIKE			LBIKE			RBIKE			
		X1	Y1	Z1	X2	Y2	Z2	X3	Y3	Z3	X4	Y4	Z4	X5	Y5	Z5	X6	Y6	Z6	X7	Y7	Z7	X8	Y8	Z8	X9	Y9	Z9	X10	Y10	Z10	X11	Y11	Z11	X12	Y12	Z12	X13	Y13	Z13	X14	Y14	Z14	X15	Y15	Z15	X16	Y16	Z16	X17	Y17	Z17	X18	Y18	Z18	X19	Y19	Z19	X20	Y20	Z20	X21	Y21	Z21	X22	Y22	Z22	X23	Y23	Z23	X24	Y24	Z24	X25	Y25	Z25	X26	Y26	Z26	X27	Y27	Z27	X28	Y28	Z28	X29	Y29	Z29	X30	Y30	Z30	X31	Y31	Z31	X32	Y32	Z32	X33	Y33	Z33	X34	Y34	Z34	X35	Y35	Z35	X36	Y36	Z36	X37	Y37	Z37	X38	Y38	Z38	X39	Y39	Z39	X40	Y40	Z40	X41	Y41	Z41	X42	Y42	Z42	X43	Y43	Z43	X44	Y44	Z44	X45	Y45	Z45	X46	Y46	Z46	X47	Y47	Z47	X48	Y48	Z48	
1001	5.0050	816.454913	1392.202828	-23.124594	850.986364	1382.845082	-353.928636	841.477458	1437.030850	-187.694898	773.311307	1297.781387	-198.762048	564.124135	1135.469591	45.802710	726.778437	920.343772	-52.908118	619.651960	1156.219887	-512.374420	732.372424	912.109306	-400.248593	242.990296	1300.470128	-268.120504	427.383824	1293.798469	-396.295106	402.453867	1320.027921	-108.474580	430.131649	1215.889665	-367.761013	408.885819	1264.414291	-123.366571	272.986060	1337.795669	-219.302355	296.898245	1332.563169	-328.153259	331.809666	1215.011785	-60.655530	317.080691	1162.421597	-416.106027	443.763278	1113.594772	-48.525443	516.820627	1063.093086	-54.213991	556.837784	989.867133	-41.584212	541.724374	1085.514384	-68.620659	629.337809	865.354156	-68.734076	622.062195	855.552356	-176.467542	522.838295	772.787997	-49.189206	462.778995	711.070826	-72.838800	381.856964	679.432984	-67.305796	473.402465	702.438225	-110.891938	259.630102	603.703320	-68.112690	180.182109	613.607421	-98.342506	399.119552	423.538829	-124.133198	318.984988	441.853725	-49.868537	311.919250	1046.894237	-422.312401	329.926530	960.738870	-419.513860	364.816040	958.661355	-410.121580	302.257605	875.809535	-413.947921	278.747711	707.929165	-387.382907	263.275532	693.281527	-296.361128	196.617145	586.612223	-410.725669	177.393918	504.686591	-393.677107	116.604176	437.822435	-398.237992	184.206578	504.361142	-351.792006	46.741097	323.958419	-393.709589	-27.769730	327.267726	-359.479164	198.763100	145.331130	-357.098005	126.969250	180.657725	-418.350501	-259.665052	976.072942	-232.190120	-76.127000	84.061762	-437.888712	-82.888124	80.069622	-40.272307	
1002	5.0100	816.407063	1387.718694	-20.394362	850.311981	1380.247331	-350.461867	841.779943	1433.486788	-184.829879	772.071933	1295.386653	-197.197264	561.663337	1133.459995	47.022917	726.150114	920.452042	-52.659419	619.516228	1156.872975	-512.204115	732.137434	911.996260	-400.198620	242.858234	1304.185634	-269.189124	426.747475	1297.093175	-396.301313	401.077410	1321.631950	-108.279543	429.848632	1219.182636	-368.020654	407.790876	1266.201139	-123.645019	272.868449	1340.992179	-219.951401	297.454586	1336.327818	-328.507852	329.325891	1216.799972	-61.763527	317.665213	1165.125901	-417.649374	440.022561	1114.417000	-49.220738	513.032456	1064.206927	-53.984116	553.121914	990.801367	-42.276247	538.272345	1086.646903	-68.737197	626.330745	865.573799	-69.364441	618.470987	855.392823	-177.008077	520.295981	771.914828	-49.809109	462.009462	708.178600	-72.726504	381.736241	674.905460	-67.442489	473.021419	699.320883	-110.771769	261.534547	595.937108	-68.464292	181.459810	603.091518	-97.839115	407.807339	421.800443	-123.918713	326.746666	436.024715	-49.963626	314.747209	1048.425162	-422.930793	334.818671	962.558541	-418.924379	369.500100	961.503037	-409.454222	308.959447	877.151666	-413.786251	288.541197	707.996614	-387.241180	272.101305	693.944290	-296.204938	203.014132	589.037033	-410.634722	180.541421	507.755923	-393.155366	117.374499	443.243430	-398.251871	186.653192	507.776714	-351.369974	43.321170	331.925947	-394.338615	-31.533109	336.834333	-360.383340	190.105022	149.132850	-356.300199	119.751984	186.181072	-417.992842	-259.678056	976.071589	-232.090155	-76.137845	84.067892	-437.886800	-82.898397	80.038599	-40.270249	
1003	5.0150	816.808554	1382.415226	-18.354330	848.570980	1377.402193	-346.846682	842.051375	1429.663555	-182.134781	770.700304	1292.746291	-195.853901	559.158375	1131.180310	48.224219	725.490042	920.491828	-52.387045	619.081059	1156.803317	-511.785905	731.860899	911.950239	-400.237573	242.782581	1307.642805	-270.289892	426.086075	1300.353569	-396.193409	399.632298	1323.035333	-108.015510	429.672032	1222.440804	-368.189020	406.611644	1267.668664	-124.062540	272.707841	1344.042690	-220.329148	297.444470	1340.064120	-328.771542	326.687154	1218.304218	-62.964116	318.554937	1167.589491	-419.263771	435.961998	1114.453815	-49.954228	508.882076	1064.305906	-53.892381	548.871168	990.643889	-43.047119	534.405428	1086.818871	-68.608796	622.299940	864.858264	-69.953754	614.001916	854.065747	-177.506882	516.612946	770.276352	-50.488318	460.064947	704.666255	-72.824419	380.734614	669.460210	-67.646540	472.128766	695.406320	-110.151797	262.579298	587.044733	-68.859271	182.024550	591.244687	-97.513140	415.882023	420.086939	-123.677826	334.054683	429.957232	-49.490426	318.045203	1049.959081	-423.496677	340.085250	964.662888	-418.347488	374.610693	964.517079	-408.304917	316.420355	878.544577	-413.384203	299.170890	708.196786	-387.116894	281.824670	694.812491	-295.776029	210.218298	591.498600	-410.444085	184.378699	511.276543	-392.775934	118.895827	449.332464	-398.353839	190.037005	511.307895	-351.389405	40.466083	340.469597	-395.108266	-34.778531	346.928660	-360.990549	181.627564	153.399928	-355.580094	112.888854	192.194807	-417.658998	-259.693568	976.071225	-231.999323	-76.147567	84.073600	-437.911432	-82.916978	80.034625	-40.271449	
1004	5.0200	817.734417	1376.463321	-17.331160	848.042759	1374.665751	-344.219326	842.233912	1425.704504	-179.871869	769.207866	1289.868692	-194.782858	556.639667	1128.836355	49.435682	724.757144	920.695442	-52.117995	618.475203	1156.593490	-511.450340	731.590305	911.956190	-400.368909	242.632127	1310.831823	-271.547023	425.615451	1303.381847	-396.160296	398.231361	1324.223973	-107.663993	429.537409	1225.520595	-368.269667	405.912953	1269.479315	-123.476901	272.650411	1346.839656	-220.887619	297.484164	1343.778488	-329.447404	324.043752	1219.425793	-64.146182	319.530661	1169.935720	-420.867465	431.714306	1113.898490	-50.661657	504.249729	1063.298246	-53.885770	543.741424	989.226401	-43.799173	530.277390	1085.772304	-68.339751	617.139081	863.199064	-70.534439	608.982426	851.744921	-178.192003	511.897493	767.593820	-51.300311	457.404135	700.101961	-72.667465	378.761906	663.158187	-67.805831	469.227946	689.826515	-110.886241	263.019283	576.961853	-69.754746	181.521837	577.631588	-97.859225	423.243066	418.095731	-123.084636	340.798456	423.227857	-48.931070	321.480046	1051.109541	-423.378238	345.946222	966.743114	-417.528500	380.257693	967.597115	-406.924082	324.915952	880.604512	-413.454092	310.353736	708.576019	-387.060518	293.032799	695.499549	-295.869259	217.862663	594.353952	-410.385823	188.711911	515.090306	-392.521042	120.937918	455.940891	-398.538860	192.432102	516.319500	-350.325172	38.149634	349.567226	-395.855830	-37.646872	357.781643	-361.471657	173.568803	158.613116	-355.447917	106.405961	198.672296	-417.353691	-259.698975	976.113393	-231.970926	-76.166628	84.167842	-437.908872	-82.912805	80.018393	-40.281452	
